<svg width="347" height="347" xmlns="http://www.w3.org/2000/svg" xmlns:xlink="http://www.w3.org/1999/xlink" xml:space="preserve" overflow="hidden"><g transform="translate(-195 -199)"><path d="M462.118 206.229 462.118 206.229C464.648 215.627 471.516 223.579 480.552 227.917L480.552 227.917C471.516 232.254 465.009 240.206 462.118 249.604L462.118 249.604C459.587 240.206 452.72 232.254 443.683 227.917L443.683 227.917C452.72 223.579 459.587 215.627 462.118 206.229Z"/><path d="M230.784 285.75 230.784 285.75C233.315 295.148 240.182 303.1 249.219 307.438L249.219 307.438C240.182 311.775 233.676 319.727 230.784 329.125L230.784 329.125C228.254 319.727 221.386 311.775 212.35 307.438L212.35 307.438C221.386 303.1 228.254 295.148 230.784 285.75Z"/><path d="M266.569 213.458 266.569 213.458C268.737 221.41 274.521 227.917 281.75 231.531L281.75 231.531C274.159 235.146 268.737 241.652 266.569 249.604L266.569 249.604C264.4 241.652 258.617 235.146 251.387 231.531L251.387 231.531C258.617 227.917 264.4 221.41 266.569 213.458Z"/><path d="M505.131 271.292 505.131 271.292C507.3 279.244 513.083 285.75 520.312 289.365L520.312 289.365C512.722 292.979 507.3 299.485 505.131 307.438L505.131 307.438C502.962 299.485 497.179 292.979 489.95 289.365L489.95 289.365C497.179 285.75 502.962 279.244 505.131 271.292Z"/><path d="M368.5 341.776C365.608 341.776 363.078 339.246 363.078 336.354L363.078 300.208C363.078 297.317 365.608 294.786 368.5 294.786 371.392 294.786 373.922 297.317 373.922 300.208L373.922 336.354C373.922 339.246 371.392 341.776 368.5 341.776Z"/><path d="M368.5 283.943C365.608 283.943 363.078 281.413 363.078 278.521L363.078 249.604C363.078 246.712 365.608 244.182 368.5 244.182 371.392 244.182 373.922 246.712 373.922 249.604L373.922 278.521C373.922 281.413 371.392 283.943 368.5 283.943Z"/><path d="M368.5 233.339C365.608 233.339 363.078 230.808 363.078 227.917L363.078 213.458C363.078 210.567 365.608 208.036 368.5 208.036 371.392 208.036 373.922 210.567 373.922 213.458L373.922 227.917C373.922 230.808 371.392 233.339 368.5 233.339Z"/><path d="M408.26 316.474C407.899 316.474 407.537 316.474 407.176 316.474 404.284 315.751 402.477 312.859 403.2 309.968L409.345 281.774C410.068 278.882 412.959 277.075 415.851 277.798 418.743 278.521 420.55 281.413 419.827 284.304L413.682 312.498C412.959 314.667 410.791 316.474 408.26 316.474Z"/><path d="M419.104 266.954C418.743 266.954 418.381 266.954 418.02 266.954 415.128 266.231 413.321 263.34 414.044 260.448L414.044 260.448 418.743 239.122C419.466 236.23 421.996 234.423 425.249 234.784 428.141 235.507 429.948 238.038 429.586 241.291 429.586 241.291 429.586 241.291 429.586 241.652L424.888 262.978C423.803 265.147 421.634 266.954 419.104 266.954Z"/><path d="M444.406 309.245C441.515 309.245 438.984 306.715 438.984 303.823 438.984 302.739 439.346 301.654 440.069 300.57L464.648 264.785C466.455 262.255 469.708 261.894 472.239 263.701 474.407 265.508 475.13 268.4 473.684 270.93L449.105 306.715C448.021 308.522 446.214 309.245 444.406 309.245Z"/><path d="M328.74 316.474C326.209 316.474 324.041 314.667 323.318 312.136L315.727 276.714C315.004 273.822 317.173 270.93 320.065 270.207 322.956 269.484 325.848 271.292 326.209 274.183L333.8 309.606C334.523 312.498 332.716 315.39 329.824 316.112 329.462 316.474 329.101 316.474 328.74 316.474Z"/><path d="M316.45 260.086C313.92 260.086 311.751 258.279 311.028 255.749L308.136 241.652C307.414 238.76 309.221 235.869 312.112 235.146 315.004 234.423 317.896 236.23 318.619 239.122 318.619 239.122 318.619 239.122 318.619 239.483L321.51 253.58C322.233 256.472 320.426 259.364 317.534 260.086L317.534 260.086C317.173 260.086 316.811 260.086 316.45 260.086L316.45 260.086Z"/><path d="M292.594 309.245C290.786 309.245 288.979 308.522 288.256 307.076L263.677 271.292C262.231 268.761 262.954 265.508 265.484 263.701 268.015 262.255 270.906 262.617 272.714 265.147L297.293 300.931C299.1 303.461 298.377 306.715 295.847 308.522 294.763 308.883 293.678 309.245 292.594 309.245Z"/><path d="M526.819 495.034 515.975 377.922C515.614 374.307 512.36 371.416 508.746 371.416 507.3 371.416 505.131 371.416 503.324 371.416L501.517 350.451 495.01 350.09C489.589 349.728 484.167 350.09 479.106 350.451L477.299 330.932 471.877 329.848C433.924 325.149 395.971 337.8 368.5 364.548 341.029 337.8 303.076 325.149 265.123 329.848L259.701 330.932 257.894 350.451C252.472 350.09 247.411 349.728 241.99 350.09L235.845 350.451 234.038 371.416C231.869 371.416 230.061 371.416 228.616 371.416 225.001 371.416 221.748 374.307 221.386 377.922L210.543 495.034C209.82 499.01 212.711 502.625 216.688 502.986 217.049 502.986 217.41 502.986 217.772 502.986 239.821 502.264 301.63 503.709 351.873 536.602 354.403 538.048 356.933 539.132 359.825 539.132L377.898 539.132C380.79 539.132 383.32 538.409 385.489 536.964 438.261 504.071 498.264 502.625 519.59 503.348 523.566 503.348 526.819 500.456 527.18 496.48 526.819 495.396 526.819 495.396 526.819 495.034ZM375.729 377.56C398.862 353.704 431.032 341.415 463.925 343.222L473.684 455.274C456.696 458.527 412.598 469.371 375.729 501.179L375.729 377.56ZM273.075 343.583C305.968 341.776 338.138 354.066 361.271 377.922L361.271 501.541C324.402 469.732 280.304 458.889 263.316 455.635L273.075 343.583ZM238.375 477.323 249.219 364.186C251.387 364.186 253.918 364.548 256.809 364.548L247.773 467.925 254.641 468.648C255.364 468.648 316.45 476.6 359.102 518.891L359.102 518.891C311.751 482.745 258.978 478.046 238.375 477.323ZM377.898 519.614 377.898 519.614C421.273 476.961 481.998 468.648 482.359 468.648L489.227 467.925 480.191 364.548C483.082 364.186 485.612 364.186 487.781 364.186L498.625 477.323C478.022 478.046 425.249 483.106 377.898 519.614Z"/></g></svg>