<svg width="96" height="96" xmlns="http://www.w3.org/2000/svg" xmlns:xlink="http://www.w3.org/1999/xlink" xml:space="preserve" overflow="hidden"><g transform="translate(-453 -283)"><path d="M522.456 310.958 526.707 306.707C527.091 306.31 527.08 305.677 526.682 305.293 526.295 304.919 525.68 304.919 525.293 305.293L520.893 309.693C515.444 305.556 508.839 303.224 502 303.025L502 297 512 297 512 295 490 295 490 297 500 297 500 303.025C481.762 303.557 467.408 318.773 467.94 337.011 468.472 355.249 483.689 369.603 501.927 369.071 520.165 368.539 534.518 353.323 533.986 335.085 533.715 325.777 529.528 317.016 522.456 310.958ZM501 367C483.879 367 470 353.121 470 336 470 318.879 483.879 305 501 305 518.121 305 532 318.879 532 336 531.981 353.113 518.113 366.981 501 367Z" stroke="#FFFFFF" fill="#FFFFFF"/><path d="M506.179 313.588 505.729 315.537C517.092 318.095 524.23 329.381 521.671 340.745 519.113 352.108 507.827 359.245 496.464 356.687 485.1 354.128 477.963 342.842 480.521 331.479 482.597 322.26 490.552 315.547 499.989 315.051 499.995 315.051 500 315.055 500 315.061L500 330.1C497.294 330.652 495.549 333.293 496.101 335.999 496.653 338.705 499.294 340.45 502 339.898 504.706 339.346 506.451 336.705 505.899 333.999 505.498 332.035 503.964 330.501 502 330.1L502 309 500 309 500 313.025C487.323 313.59 477.505 324.325 478.071 337.002 478.636 349.679 489.371 359.497 502.047 358.931 514.724 358.366 524.542 347.631 523.977 334.954 523.517 324.643 516.237 315.904 506.179 313.588ZM504 335C504 336.657 502.657 338 501 338 499.343 338 498 336.657 498 335 498 333.343 499.343 332 501 332 502.657 332 504 333.343 504 335Z" stroke="#FFFFFF" fill="#FFFFFF"/></g></svg>