<svg width="96" height="96" xmlns="http://www.w3.org/2000/svg" xmlns:xlink="http://www.w3.org/1999/xlink" xml:space="preserve" overflow="hidden"><g transform="translate(-454 -264)"><path d="M527.9 266 527.9 266C528.6 268.6 530.5 270.8 533 272L533 272C530.5 273.2 528.7 275.4 527.9 278L527.9 278C527.2 275.4 525.3 273.2 522.8 272L522.8 272C525.3 270.8 527.2 268.6 527.9 266Z"/><path d="M463.9 288 463.9 288C464.6 290.6 466.5 292.8 469 294L469 294C466.5 295.2 464.7 297.4 463.9 300L463.9 300C463.2 297.4 461.3 295.2 458.8 294L458.8 294C461.3 292.8 463.2 290.6 463.9 288Z"/><path d="M473.8 268 473.8 268C474.4 270.2 476 272 478 273L478 273C475.9 274 474.4 275.8 473.8 278L473.8 278C473.2 275.8 471.6 274 469.6 273L469.6 273C471.6 272 473.2 270.2 473.8 268Z"/><path d="M539.8 284 539.8 284C540.4 286.2 542 288 544 289L544 289C541.9 290 540.4 291.8 539.8 294L539.8 294C539.2 291.8 537.6 290 535.6 289L535.6 289C537.6 288 539.2 286.2 539.8 284Z"/><path d="M502 303.5C501.2 303.5 500.5 302.8 500.5 302L500.5 292C500.5 291.2 501.2 290.5 502 290.5 502.8 290.5 503.5 291.2 503.5 292L503.5 302C503.5 302.8 502.8 303.5 502 303.5Z"/><path d="M502 287.5C501.2 287.5 500.5 286.8 500.5 286L500.5 278C500.5 277.2 501.2 276.5 502 276.5 502.8 276.5 503.5 277.2 503.5 278L503.5 286C503.5 286.8 502.8 287.5 502 287.5Z"/><path d="M502 273.5C501.2 273.5 500.5 272.8 500.5 272L500.5 268C500.5 267.2 501.2 266.5 502 266.5 502.8 266.5 503.5 267.2 503.5 268L503.5 272C503.5 272.8 502.8 273.5 502 273.5Z"/><path d="M513 296.5C512.9 296.5 512.8 296.5 512.7 296.5 511.9 296.3 511.4 295.5 511.6 294.7L513.3 286.9C513.5 286.1 514.3 285.6 515.1 285.8 515.9 286 516.4 286.8 516.2 287.6L514.5 295.4C514.3 296 513.7 296.5 513 296.5Z"/><path d="M516 282.8C515.9 282.8 515.8 282.8 515.7 282.8 514.9 282.6 514.4 281.8 514.6 281L514.6 281 515.9 275.1C516.1 274.3 516.8 273.8 517.7 273.9 518.5 274.1 519 274.8 518.9 275.7 518.9 275.7 518.9 275.7 518.9 275.8L517.6 281.7C517.3 282.3 516.7 282.8 516 282.8Z"/><path d="M523 294.5C522.2 294.5 521.5 293.8 521.5 293 521.5 292.7 521.6 292.4 521.8 292.1L528.6 282.2C529.1 281.5 530 281.4 530.7 281.9 531.3 282.4 531.5 283.2 531.1 283.9L524.3 293.8C524 294.3 523.5 294.5 523 294.5Z"/><path d="M491 296.5C490.3 296.5 489.7 296 489.5 295.3L487.4 285.5C487.2 284.7 487.8 283.9 488.6 283.7 489.4 283.5 490.2 284 490.3 284.8L492.4 294.6C492.6 295.4 492.1 296.2 491.3 296.4 491.2 296.5 491.1 296.5 491 296.5Z"/><path d="M487.6 280.9C486.9 280.9 486.3 280.4 486.1 279.7L485.3 275.8C485.1 275 485.6 274.2 486.4 274 487.2 273.8 488 274.3 488.2 275.1 488.2 275.1 488.2 275.1 488.2 275.2L489 279.1C489.2 279.9 488.7 280.7 487.9 280.9L487.9 280.9C487.8 280.9 487.7 280.9 487.6 280.9L487.6 280.9Z"/><path d="M481 294.5C480.5 294.5 480 294.3 479.8 293.9L473 284C472.6 283.3 472.8 282.4 473.5 281.9 474.2 281.5 475 281.6 475.5 282.3L482.3 292.2C482.8 292.9 482.6 293.8 481.9 294.3 481.6 294.4 481.3 294.5 481 294.5Z"/><path d="M545.8 345.9 542.8 313.5C542.7 312.5 541.8 311.7 540.8 311.7 540.4 311.7 539.8 311.7 539.3 311.7L538.8 305.9 537 305.8C535.5 305.7 534 305.8 532.6 305.9L532.1 300.5 530.6 300.2C520.1 298.9 509.6 302.4 502 309.8 494.4 302.4 483.9 298.9 473.4 300.2L471.9 300.5 471.4 305.9C469.9 305.8 468.5 305.7 467 305.8L465.3 305.9 464.8 311.7C464.2 311.7 463.7 311.7 463.3 311.7 462.3 311.7 461.4 312.5 461.3 313.5L458.3 345.9C458.1 347 458.9 348 460 348.1 460.1 348.1 460.2 348.1 460.3 348.1 466.4 347.9 483.5 348.3 497.4 357.4 498.1 357.8 498.8 358.1 499.6 358.1L504.6 358.1C505.4 358.1 506.1 357.9 506.7 357.5 521.3 348.4 537.9 348 543.8 348.2 544.9 348.2 545.8 347.4 545.9 346.3 545.8 346 545.8 346 545.8 345.9ZM504 313.4C510.4 306.8 519.3 303.4 528.4 303.9L531.1 334.9C526.4 335.8 514.2 338.8 504 347.6L504 313.4ZM475.6 304C484.7 303.5 493.6 306.9 500 313.5L500 347.7C489.8 338.9 477.6 335.9 472.9 335L475.6 304ZM466 341 469 309.7C469.6 309.7 470.3 309.8 471.1 309.8L468.6 338.4 470.5 338.6C470.7 338.6 487.6 340.8 499.4 352.5L499.4 352.5C486.3 342.5 471.7 341.2 466 341ZM504.6 352.7 504.6 352.7C516.6 340.9 533.4 338.6 533.5 338.6L535.4 338.4 532.9 309.8C533.7 309.7 534.4 309.7 535 309.7L538 341C532.3 341.2 517.7 342.6 504.6 352.7Z"/></g></svg>